<svg id="my-svg" width="100%" xmlns="http://www.w3.org/2000/svg" xmlns:xlink="http://www.w3.org/1999/xlink" class="mindmapDiagram" style="max-width: 756.778px; background-color: white;" viewBox="5 5 756.7778930664062 426.9656982421875" role="graphics-document document" aria-roledescription="mindmap"><style>#my-svg{font-family:'IBM Plex Sans','Segoe UI',sans-serif;font-size:16px;fill:#0f172a;}@keyframes edge-animation-frame{from{stroke-dashoffset:0;}}@keyframes dash{to{stroke-dashoffset:0;}}#my-svg .edge-animation-slow{stroke-dasharray:9,5!important;stroke-dashoffset:900;animation:dash 50s linear infinite;stroke-linecap:round;}#my-svg .edge-animation-fast{stroke-dasharray:9,5!important;stroke-dashoffset:900;animation:dash 20s linear infinite;stroke-linecap:round;}#my-svg .error-icon{fill:#fee2e2;}#my-svg .error-text{fill:#7f1d1d;stroke:#7f1d1d;}#my-svg .edge-thickness-normal{stroke-width:1px;}#my-svg .edge-thickness-thick{stroke-width:3.5px;}#my-svg .edge-pattern-solid{stroke-dasharray:0;}#my-svg .edge-thickness-invisible{stroke-width:0;fill:none;}#my-svg .edge-pattern-dashed{stroke-dasharray:3;}#my-svg .edge-pattern-dotted{stroke-dasharray:2;}#my-svg .marker{fill:#334155;stroke:#334155;}#my-svg .marker.cross{stroke:#334155;}#my-svg svg{font-family:'IBM Plex Sans','Segoe UI',sans-serif;font-size:16px;}#my-svg p{margin:0;}#my-svg .edge{stroke-width:3;}#my-svg .section--1 rect,#my-svg .section--1 path,#my-svg .section--1 circle,#my-svg .section--1 polygon,#my-svg .section--1 path{fill:hsl(204, 93.75%, 68.7254901961%);}#my-svg .section--1 text{fill:#0f172a;}#my-svg .node-icon--1{font-size:40px;color:#0f172a;}#my-svg .section-edge--1{stroke:hsl(204, 93.75%, 68.7254901961%);}#my-svg .edge-depth--1{stroke-width:17;}#my-svg .section--1 line{stroke:rgb(154.5156249999, 64.796875, 4.984375);stroke-width:3;}#my-svg .disabled,#my-svg .disabled circle,#my-svg .disabled text{fill:lightgray;}#my-svg .disabled text{fill:#efefef;}#my-svg .section-0 rect,#my-svg .section-0 path,#my-svg .section-0 circle,#my-svg .section-0 polygon,#my-svg .section-0 path{fill:hsl(140.625, 84.2105263158%, 67.5490196078%);}#my-svg .section-0 text{fill:#0f172a;}#my-svg .node-icon-0{font-size:40px;color:#0f172a;}#my-svg .section-edge-0{stroke:hsl(140.625, 84.2105263158%, 67.5490196078%);}#my-svg .edge-depth-0{stroke-width:14;}#my-svg .section-0 line{stroke:rgb(152.4342105265, 13.0657894737, 104.5263157896);stroke-width:3;}#my-svg .disabled,#my-svg .disabled circle,#my-svg .disabled text{fill:lightgray;}#my-svg .disabled text{fill:#efefef;}#my-svg .section-1 rect,#my-svg .section-1 path,#my-svg .section-1 circle,#my-svg .section-1 polygon,#my-svg .section-1 path{fill:hsl(48, 96.4912280702%, 63.8235294118%);}#my-svg .section-1 text{fill:#0f172a;}#my-svg .node-icon-1{font-size:40px;color:#0f172a;}#my-svg .section-edge-1{stroke:hsl(48, 96.4912280702%, 63.8235294118%);}#my-svg .edge-depth-1{stroke-width:11;}#my-svg .section-1 line{stroke:rgb(3.2368421052, 38.8421052631, 181.2631578946);stroke-width:3;}#my-svg .disabled,#my-svg .disabled circle,#my-svg .disabled text{fill:lightgray;}#my-svg .disabled text{fill:#efefef;}#my-svg .section-2 rect,#my-svg .section-2 path,#my-svg .section-2 circle,#my-svg .section-2 polygon,#my-svg .section-2 path{fill:hsl(234, 93.75%, 68.7254901961%);}#my-svg .section-2 text{fill:#0f172a;}#my-svg .node-icon-2{font-size:40px;color:#0f172a;}#my-svg .section-edge-2{stroke:hsl(234, 93.75%, 68.7254901961%);}#my-svg .edge-depth-2{stroke-width:8;}#my-svg .section-2 line{stroke:rgb(154.5156249999, 139.5624999999, 4.984375);stroke-width:3;}#my-svg .disabled,#my-svg .disabled circle,#my-svg .disabled text{fill:lightgray;}#my-svg .disabled text{fill:#efefef;}#my-svg .section-3 rect,#my-svg .section-3 path,#my-svg .section-3 circle,#my-svg .section-3 polygon,#my-svg .section-3 path{fill:hsl(264, 93.75%, 68.7254901961%);}#my-svg .section-3 text{fill:#0f172a;}#my-svg .node-icon-3{font-size:40px;color:#0f172a;}#my-svg .section-edge-3{stroke:hsl(264, 93.75%, 68.7254901961%);}#my-svg .edge-depth-3{stroke-width:5;}#my-svg .section-3 line{stroke:rgb(94.7031249999, 154.5156249999, 4.984375);stroke-width:3;}#my-svg .disabled,#my-svg .disabled circle,#my-svg .disabled text{fill:lightgray;}#my-svg .disabled text{fill:#efefef;}#my-svg .section-4 rect,#my-svg .section-4 path,#my-svg .section-4 circle,#my-svg .section-4 polygon,#my-svg .section-4 path{fill:hsl(294, 93.75%, 68.7254901961%);}#my-svg .section-4 text{fill:#0f172a;}#my-svg .node-icon-4{font-size:40px;color:#0f172a;}#my-svg .section-edge-4{stroke:hsl(294, 93.75%, 68.7254901961%);}#my-svg .edge-depth-4{stroke-width:2;}#my-svg .section-4 line{stroke:rgb(19.9375, 154.5156249999, 4.984375);stroke-width:3;}#my-svg .disabled,#my-svg .disabled circle,#my-svg .disabled text{fill:lightgray;}#my-svg .disabled text{fill:#efefef;}#my-svg .section-5 rect,#my-svg .section-5 path,#my-svg .section-5 circle,#my-svg .section-5 polygon,#my-svg .section-5 path{fill:hsl(324, 93.75%, 68.7254901961%);}#my-svg .section-5 text{fill:#0f172a;}#my-svg .node-icon-5{font-size:40px;color:#0f172a;}#my-svg .section-edge-5{stroke:hsl(324, 93.75%, 68.7254901961%);}#my-svg .edge-depth-5{stroke-width:-1;}#my-svg .section-5 line{stroke:rgb(4.984375, 154.5156249999, 64.796875);stroke-width:3;}#my-svg .disabled,#my-svg .disabled circle,#my-svg .disabled text{fill:lightgray;}#my-svg .disabled text{fill:#efefef;}#my-svg .section-6 rect,#my-svg .section-6 path,#my-svg .section-6 circle,#my-svg .section-6 polygon,#my-svg .section-6 path{fill:hsl(354, 93.75%, 68.7254901961%);}#my-svg .section-6 text{fill:#0f172a;}#my-svg .node-icon-6{font-size:40px;color:#0f172a;}#my-svg .section-edge-6{stroke:hsl(354, 93.75%, 68.7254901961%);}#my-svg .edge-depth-6{stroke-width:-4;}#my-svg .section-6 line{stroke:rgb(4.984375, 154.5156249999, 139.5624999999);stroke-width:3;}#my-svg .disabled,#my-svg .disabled circle,#my-svg .disabled text{fill:lightgray;}#my-svg .disabled text{fill:#efefef;}#my-svg .section-7 rect,#my-svg .section-7 path,#my-svg .section-7 circle,#my-svg .section-7 polygon,#my-svg .section-7 path{fill:hsl(54, 93.75%, 75%);}#my-svg .section-7 text{fill:#0f172a;}#my-svg .node-icon-7{font-size:40px;color:#0f172a;}#my-svg .section-edge-7{stroke:hsl(54, 93.75%, 75%);}#my-svg .edge-depth-7{stroke-width:-7;}#my-svg .section-7 line{stroke:rgb(3.984375, 15.9375, 123.515625);stroke-width:3;}#my-svg .disabled,#my-svg .disabled circle,#my-svg .disabled text{fill:lightgray;}#my-svg .disabled text{fill:#efefef;}#my-svg .section-8 rect,#my-svg .section-8 path,#my-svg .section-8 circle,#my-svg .section-8 polygon,#my-svg .section-8 path{fill:hsl(114, 93.75%, 68.7254901961%);}#my-svg .section-8 text{fill:#0f172a;}#my-svg .node-icon-8{font-size:40px;color:#0f172a;}#my-svg .section-edge-8{stroke:hsl(114, 93.75%, 68.7254901961%);}#my-svg .edge-depth-8{stroke-width:-10;}#my-svg .section-8 line{stroke:rgb(139.5624999999, 4.984375, 154.5156249999);stroke-width:3;}#my-svg .disabled,#my-svg .disabled circle,#my-svg .disabled text{fill:lightgray;}#my-svg .disabled text{fill:#efefef;}#my-svg .section-9 rect,#my-svg .section-9 path,#my-svg .section-9 circle,#my-svg .section-9 polygon,#my-svg .section-9 path{fill:hsl(144, 93.75%, 68.7254901961%);}#my-svg .section-9 text{fill:#0f172a;}#my-svg .node-icon-9{font-size:40px;color:#0f172a;}#my-svg .section-edge-9{stroke:hsl(144, 93.75%, 68.7254901961%);}#my-svg .edge-depth-9{stroke-width:-13;}#my-svg .section-9 line{stroke:rgb(154.5156249999, 4.984375, 94.7031249999);stroke-width:3;}#my-svg .disabled,#my-svg .disabled circle,#my-svg .disabled text{fill:lightgray;}#my-svg .disabled text{fill:#efefef;}#my-svg .section-10 rect,#my-svg .section-10 path,#my-svg .section-10 circle,#my-svg .section-10 polygon,#my-svg .section-10 path{fill:hsl(174, 93.75%, 68.7254901961%);}#my-svg .section-10 text{fill:#0f172a;}#my-svg .node-icon-10{font-size:40px;color:#0f172a;}#my-svg .section-edge-10{stroke:hsl(174, 93.75%, 68.7254901961%);}#my-svg .edge-depth-10{stroke-width:-16;}#my-svg .section-10 line{stroke:rgb(154.5156249999, 4.984375, 19.9375);stroke-width:3;}#my-svg .disabled,#my-svg .disabled circle,#my-svg .disabled text{fill:lightgray;}#my-svg .disabled text{fill:#efefef;}#my-svg .section-root rect,#my-svg .section-root path,#my-svg .section-root circle,#my-svg .section-root polygon{fill:hsl(204, 93.75%, 68.7254901961%);}#my-svg .section-root text{fill:#0f172a;}#my-svg .section-root span{color:#0f172a;}#my-svg .section-2 span{color:#0f172a;}#my-svg .icon-container{height:100%;display:flex;justify-content:center;align-items:center;}#my-svg .edge{fill:none;}#my-svg .mindmap-node-label{dy:1em;alignment-baseline:middle;text-anchor:middle;dominant-baseline:middle;text-align:center;}#my-svg :root{--mermaid-font-family:'IBM Plex Sans','Segoe UI',sans-serif;}</style><g><marker id="my-svg_mindmap-pointEnd" class="marker mindmap" viewBox="0 0 10 10" refX="5" refY="5" markerUnits="userSpaceOnUse" markerWidth="8" markerHeight="8" orient="auto"><path d="M 0 0 L 10 5 L 0 10 z" class="arrowMarkerPath" style="stroke-width: 1; stroke-dasharray: 1, 0;"/></marker><marker id="my-svg_mindmap-pointStart" class="marker mindmap" viewBox="0 0 10 10" refX="4.5" refY="5" markerUnits="userSpaceOnUse" markerWidth="8" markerHeight="8" orient="auto"><path d="M 0 5 L 10 10 L 10 0 z" class="arrowMarkerPath" style="stroke-width: 1; stroke-dasharray: 1, 0;"/></marker><g class="subgraphs"/><g class="edgePaths"><path d="M383.535,223.487L392.848,227.687C402.16,231.887,420.786,240.287,439.411,248.687C458.036,257.087,476.661,265.487,485.973,269.687L495.286,273.888" id="edge_0_1" class="edge-thickness-normal edge-pattern-solid edge section-edge-0 edge-depth-1" style="undefined;;;undefined" data-edge="true" data-et="edge" data-id="edge_0_1" data-points="W3sieCI6MzgzLjUzNTMzMTc0MTcxMDQsInkiOjIyMy40ODY4ODQ4NzAyNjMxNH0seyJ4Ijo0MzkuNDEwNjkyMzE2MDM0MSwieSI6MjQ4LjY4NzIwNzczMzI5MzU4fSx7IngiOjQ5NS4yODYwNTI4OTAzNTc4LCJ5IjoyNzMuODg3NTMwNTk2MzI0MDR9XQ=="/><path d="M523.958,279.85L534.834,279.702C545.709,279.554,567.459,279.258,589.21,278.962C610.96,278.666,632.711,278.369,643.586,278.221L654.461,278.073" id="edge_1_2" class="edge-thickness-normal edge-pattern-solid edge section-edge-0 edge-depth-3" style="undefined;;;undefined" data-edge="true" data-et="edge" data-id="edge_1_2" data-points="W3sieCI6NTIzLjk1ODMxNDMxODg0NjMsInkiOjI3OS44NTAyNTEzMjg5NjQ2fSx7IngiOjU4OS4yMDk4MDQyMDA3OSwieSI6Mjc4Ljk2MTc2MDM0NTI1NjU1fSx7IngiOjY1NC40NjEyOTQwODI3MzM3LCJ5IjoyNzguMDczMjY5MzYxNTQ4NX1d"/><path d="M517.88,292.113L521.174,296.566C524.468,301.019,531.056,309.924,537.644,318.83C544.232,327.735,550.82,336.64,554.114,341.093L557.408,345.546" id="edge_1_3" class="edge-thickness-normal edge-pattern-solid edge section-edge-0 edge-depth-3" style="undefined;;;undefined" data-edge="true" data-et="edge" data-id="edge_1_3" data-points="W3sieCI6NTE3Ljg4MDQ3OTE3MzU3MjYsInkiOjI5Mi4xMTM0OTEwMjkxNDUwNX0seyJ4Ijo1MzcuNjQ0MDQ1MTgwOTA2MSwieSI6MzE4LjgyOTY3OTEyMDA5NTI1fSx7IngiOjU1Ny40MDc2MTExODgyMzk3LCJ5IjozNDUuNTQ1ODY3MjExMDQ1NDV9XQ=="/><path d="M362.342,230.299L358.015,237.766C353.689,245.233,345.035,260.168,336.382,275.103C327.729,290.038,319.076,304.972,314.749,312.44L310.422,319.907" id="edge_0_4" class="edge-thickness-normal edge-pattern-solid edge section-edge-1 edge-depth-1" style="undefined;;;undefined" data-edge="true" data-et="edge" data-id="edge_0_4" data-points="W3sieCI6MzYyLjM0MTcxMzcxNjQ0MjEsInkiOjIzMC4yOTg3Njk5OTc0ODIwNX0seyJ4IjozMzYuMzgyMDc3MjczNjQxNDcsInkiOjI3NS4xMDI5MzIyODM0MjY5fSx7IngiOjMxMC40MjI0NDA4MzA4NDA4NiwieSI6MzE5LjkwNzA5NDU2OTM3MTh9XQ=="/><path d="M289.222,339.038L280.961,342.753C272.699,346.468,256.177,353.898,239.654,361.328C223.131,368.758,206.609,376.188,198.347,379.903L190.086,383.618" id="edge_4_5" class="edge-thickness-normal edge-pattern-solid edge section-edge-1 edge-depth-3" style="undefined;;;undefined" data-edge="true" data-et="edge" data-id="edge_4_5" data-points="W3sieCI6Mjg5LjIyMjAzNjkzNDUxMDksInkiOjMzOS4wMzc4MDc0NzMzNzJ9LHsieCI6MjM5LjY1Mzk5NDA2MzQ1NDUsInkiOjM2MS4zMjc3ODQ2ODM5Nzg4fSx7IngiOjE5MC4wODU5NTExOTIzOTgwOCwieSI6MzgzLjYxNzc2MTg5NDU4NTU2fV0="/><path d="M313.705,343.293L318.139,347.565C322.573,351.838,331.441,360.382,340.309,368.926C349.177,377.47,358.045,386.014,362.479,390.286L366.913,394.558" id="edge_4_6" class="edge-thickness-normal edge-pattern-solid edge section-edge-1 edge-depth-3" style="undefined;;;undefined" data-edge="true" data-et="edge" data-id="edge_4_6" data-points="W3sieCI6MzEzLjcwNDU1MTU2ODIyMTcsInkiOjM0My4yOTMzODMyNzc3OTJ9LHsieCI6MzQwLjMwODg5ODQ1MzcxMTY2LCJ5IjozNjguOTI1ODIwNTEwNTI1M30seyJ4IjozNjYuOTEzMjQ1MzM5MjAxNjQsInkiOjM5NC41NTgyNTc3NDMyNTg2fV0="/><path d="M288.993,327.271L280.121,323.689C271.249,320.108,253.505,312.944,235.76,305.781C218.016,298.618,200.272,291.455,191.4,287.873L182.528,284.291" id="edge_4_7" class="edge-thickness-normal edge-pattern-solid edge section-edge-1 edge-depth-3" style="undefined;;;undefined" data-edge="true" data-et="edge" data-id="edge_4_7" data-points="W3sieCI6Mjg4Ljk5MzExNjkyNzgwMTc0LCJ5IjozMjcuMjcwNzkwMTEwMjc4NjV9LHsieCI6MjM1Ljc2MDQ4ODAwNDY3MzI4LCJ5IjozMDUuNzgxMDQ2MzM4NTY4NH0seyJ4IjoxODIuNTI3ODU5MDgxNTQ0ODIsInkiOjI4NC4yOTEzMDI1NjY4NTgxfV0="/><path d="M356.593,210.324L347.817,205.696C339.041,201.069,321.489,191.814,303.937,182.559C286.385,173.304,268.833,164.049,260.057,159.421L251.281,154.794" id="edge_0_8" class="edge-thickness-normal edge-pattern-solid edge section-edge-2 edge-depth-1" style="undefined;;;undefined" data-edge="true" data-et="edge" data-id="edge_0_8" data-points="W3sieCI6MzU2LjU5MzIyMzYwNDY5OTA2LCJ5IjoyMTAuMzIzNjQ3NDg1MTM4NzR9LHsieCI6MzAzLjkzNzI1MDQ2OTAzMDcsInkiOjE4Mi41NTg4MTc5MjM2OTcwNn0seyJ4IjoyNTEuMjgxMjc3MzMzMzYyMywieSI6MTU0Ljc5Mzk4ODM2MjI1NTR9XQ=="/><path d="M223.688,152.247L213.346,155.459C203.004,158.671,182.319,165.095,161.635,171.519C140.951,177.943,120.267,184.367,109.925,187.579L99.583,190.791" id="edge_8_9" class="edge-thickness-normal edge-pattern-solid edge section-edge-2 edge-depth-3" style="undefined;;;undefined" data-edge="true" data-et="edge" data-id="edge_8_9" data-points="W3sieCI6MjIzLjY4NzgwOTgwMzk5MDcsInkiOjE1Mi4yNDY3NDk5MTI4NzIyNX0seyJ4IjoxNjEuNjM1MzE2NzQwNDk2MDIsInkiOjE3MS41MTg5NjU2NzI2NTc1NH0seyJ4Ijo5OS41ODI4MjM2NzcwMDEzNiwieSI6MTkwLjc5MTE4MTQzMjQ0Mjg0fV0="/><path d="M224.218,141.906L215.493,138.179C206.767,134.453,189.316,126.999,171.866,119.546C154.415,112.092,136.964,104.639,128.238,100.912L119.513,97.185" id="edge_8_10" class="edge-thickness-normal edge-pattern-solid edge section-edge-2 edge-depth-3" style="undefined;;;undefined" data-edge="true" data-et="edge" data-id="edge_8_10" data-points="W3sieCI6MjI0LjIxODM0NTE4NzQ1OTA4LCJ5IjoxNDEuOTA1OTcyNzE4MjIwNTR9LHsieCI6MTcxLjg2NTUyMzc3OTU0Mzg4LCJ5IjoxMTkuNTQ1NjgxOTc1OTAxMTJ9LHsieCI6MTE5LjUxMjcwMjM3MTYyODY2LCJ5Ijo5Ny4xODUzOTEyMzM1ODE2OH1d"/><path d="M242.637,133.528L244.192,128.731C245.746,123.933,248.856,114.338,251.965,104.743C255.075,95.148,258.184,85.554,259.739,80.756L261.294,75.959" id="edge_8_11" class="edge-thickness-normal edge-pattern-solid edge section-edge-2 edge-depth-3" style="undefined;;;undefined" data-edge="true" data-et="edge" data-id="edge_8_11" data-points="W3sieCI6MjQyLjYzNzA2OTg0NjQyNTYyLCJ5IjoxMzMuNTI4Mjc5NzgxMDE2NTJ9LHsieCI6MjUxLjk2NTI5NTQ5ODcwNTcsInkiOjEwNC43NDM0MTg2MDk5ODk5OX0seyJ4IjoyNjEuMjkzNTIxMTUwOTg1OCwieSI6NzUuOTU4NTU3NDM4OTYzNDd9XQ=="/><path d="M381.165,207.459L388.593,200.98C396.021,194.5,410.877,181.541,425.733,168.582C440.589,155.622,455.445,142.663,462.873,136.183L470.301,129.704" id="edge_0_12" class="edge-thickness-normal edge-pattern-solid edge section-edge-3 edge-depth-1" style="undefined;;;undefined" data-edge="true" data-et="edge" data-id="edge_0_12" data-points="W3sieCI6MzgxLjE2NTI1NTgyMjA4NSwieSI6MjA3LjQ1OTQ1MTUxNDgxODV9LHsieCI6NDI1LjczMjkyNDQ0OTQ3Mjc2LCJ5IjoxNjguNTgxNTkwOTMwNzcyNX0seyJ4Ijo0NzAuMzAwNTkzMDc2ODYwNTQsInkiOjEyOS43MDM3MzAzNDY3MjY1fV0="/><path d="M479.401,105.006L478.681,100.159C477.961,95.311,476.521,85.616,475.081,75.922C473.641,66.227,472.201,56.532,471.481,51.685L470.761,46.837" id="edge_12_13" class="edge-thickness-normal edge-pattern-solid edge section-edge-3 edge-depth-3" style="undefined;;;undefined" data-edge="true" data-et="edge" data-id="edge_12_13" data-points="W3sieCI6NDc5LjQwMDUyNDIwMjc0NDYsInkiOjEwNS4wMDU5OTYxOTk4ODU1fSx7IngiOjQ3NS4wODA4ODA1NTg1MzAyLCJ5Ijo3NS45MjE2MjI0NjQ3MzczN30seyJ4Ijo0NzAuNzYxMjM2OTE0MzE1OSwieSI6NDYuODM3MjQ4NzI5NTg5MjM0fV0="/><path d="M496.263,116.661L509.628,113.76C522.994,110.859,549.725,105.057,576.457,99.255C603.188,93.452,629.919,87.65,643.285,84.749L656.651,81.848" id="edge_12_14" class="edge-thickness-normal edge-pattern-solid edge section-edge-3 edge-depth-3" style="undefined;;;undefined" data-edge="true" data-et="edge" data-id="edge_12_14" data-points="W3sieCI6NDk2LjI2MjgyNTk0NTQwMzYsInkiOjExNi42NjE0NTY5MzMyNDczMn0seyJ4Ijo1NzYuNDU2NjY2MDI1NjU3OSwieSI6OTkuMjU0NjkxOTI4OTY4MX0seyJ4Ijo2NTYuNjUwNTA2MTA1OTEyMiwieSI6ODEuODQ3OTI2OTI0Njg4ODh9XQ=="/><path d="M495.447,125.622L503.966,129.178C512.486,132.734,529.525,139.847,546.565,146.96C563.604,154.073,580.643,161.186,589.163,164.742L597.683,168.299" id="edge_12_15" class="edge-thickness-normal edge-pattern-solid edge section-edge-3 edge-depth-3" style="undefined;;;undefined" data-edge="true" data-et="edge" data-id="edge_12_15" data-points="W3sieCI6NDk1LjQ0NjUzMjQ0NzkwMjQsInkiOjEyNS42MjE1NjQxMTEyOTg1N30seyJ4Ijo1NDYuNTY0Njg5NTUyNjk0LCJ5IjoxNDYuOTYwMTkwODI4NDQxOX0seyJ4Ijo1OTcuNjgyODQ2NjU3NDg1NSwieSI6MTY4LjI5ODgxNzU0NTU4NTI1fV0="/></g><g class="edgeLabels"><g class="edgeLabel"><g class="label" data-id="edge_0_1" transform="translate(0, 0)"><foreignObject width="0" height="0"><div xmlns="http://www.w3.org/1999/xhtml" class="labelBkg" style="display: table-cell; white-space: nowrap; line-height: 1.5; max-width: 200px; text-align: center;"><span class="edgeLabel"></span></div></foreignObject></g></g><g class="edgeLabel"><g class="label" data-id="edge_1_2" transform="translate(0, 0)"><foreignObject width="0" height="0"><div xmlns="http://www.w3.org/1999/xhtml" class="labelBkg" style="display: table-cell; white-space: nowrap; line-height: 1.5; max-width: 200px; text-align: center;"><span class="edgeLabel"></span></div></foreignObject></g></g><g class="edgeLabel"><g class="label" data-id="edge_1_3" transform="translate(0, 0)"><foreignObject width="0" height="0"><div xmlns="http://www.w3.org/1999/xhtml" class="labelBkg" style="display: table-cell; white-space: nowrap; line-height: 1.5; max-width: 200px; text-align: center;"><span class="edgeLabel"></span></div></foreignObject></g></g><g class="edgeLabel"><g class="label" data-id="edge_0_4" transform="translate(0, 0)"><foreignObject width="0" height="0"><div xmlns="http://www.w3.org/1999/xhtml" class="labelBkg" style="display: table-cell; white-space: nowrap; line-height: 1.5; max-width: 200px; text-align: center;"><span class="edgeLabel"></span></div></foreignObject></g></g><g class="edgeLabel"><g class="label" data-id="edge_4_5" transform="translate(0, 0)"><foreignObject width="0" height="0"><div xmlns="http://www.w3.org/1999/xhtml" class="labelBkg" style="display: table-cell; white-space: nowrap; line-height: 1.5; max-width: 200px; text-align: center;"><span class="edgeLabel"></span></div></foreignObject></g></g><g class="edgeLabel"><g class="label" data-id="edge_4_6" transform="translate(0, 0)"><foreignObject width="0" height="0"><div xmlns="http://www.w3.org/1999/xhtml" class="labelBkg" style="display: table-cell; white-space: nowrap; line-height: 1.5; max-width: 200px; text-align: center;"><span class="edgeLabel"></span></div></foreignObject></g></g><g class="edgeLabel"><g class="label" data-id="edge_4_7" transform="translate(0, 0)"><foreignObject width="0" height="0"><div xmlns="http://www.w3.org/1999/xhtml" class="labelBkg" style="display: table-cell; white-space: nowrap; line-height: 1.5; max-width: 200px; text-align: center;"><span class="edgeLabel"></span></div></foreignObject></g></g><g class="edgeLabel"><g class="label" data-id="edge_0_8" transform="translate(0, 0)"><foreignObject width="0" height="0"><div xmlns="http://www.w3.org/1999/xhtml" class="labelBkg" style="display: table-cell; white-space: nowrap; line-height: 1.5; max-width: 200px; text-align: center;"><span class="edgeLabel"></span></div></foreignObject></g></g><g class="edgeLabel"><g class="label" data-id="edge_8_9" transform="translate(0, 0)"><foreignObject width="0" height="0"><div xmlns="http://www.w3.org/1999/xhtml" class="labelBkg" style="display: table-cell; white-space: nowrap; line-height: 1.5; max-width: 200px; text-align: center;"><span class="edgeLabel"></span></div></foreignObject></g></g><g class="edgeLabel"><g class="label" data-id="edge_8_10" transform="translate(0, 0)"><foreignObject width="0" height="0"><div xmlns="http://www.w3.org/1999/xhtml" class="labelBkg" style="display: table-cell; white-space: nowrap; line-height: 1.5; max-width: 200px; text-align: center;"><span class="edgeLabel"></span></div></foreignObject></g></g><g class="edgeLabel"><g class="label" data-id="edge_8_11" transform="translate(0, 0)"><foreignObject width="0" height="0"><div xmlns="http://www.w3.org/1999/xhtml" class="labelBkg" style="display: table-cell; white-space: nowrap; line-height: 1.5; max-width: 200px; text-align: center;"><span class="edgeLabel"></span></div></foreignObject></g></g><g class="edgeLabel"><g class="label" data-id="edge_0_12" transform="translate(0, 0)"><foreignObject width="0" height="0"><div xmlns="http://www.w3.org/1999/xhtml" class="labelBkg" style="display: table-cell; white-space: nowrap; line-height: 1.5; max-width: 200px; text-align: center;"><span class="edgeLabel"></span></div></foreignObject></g></g><g class="edgeLabel"><g class="label" data-id="edge_12_13" transform="translate(0, 0)"><foreignObject width="0" height="0"><div xmlns="http://www.w3.org/1999/xhtml" class="labelBkg" style="display: table-cell; white-space: nowrap; line-height: 1.5; max-width: 200px; text-align: center;"><span class="edgeLabel"></span></div></foreignObject></g></g><g class="edgeLabel"><g class="label" data-id="edge_12_14" transform="translate(0, 0)"><foreignObject width="0" height="0"><div xmlns="http://www.w3.org/1999/xhtml" class="labelBkg" style="display: table-cell; white-space: nowrap; line-height: 1.5; max-width: 200px; text-align: center;"><span class="edgeLabel"></span></div></foreignObject></g></g><g class="edgeLabel"><g class="label" data-id="edge_12_15" transform="translate(0, 0)"><foreignObject width="0" height="0"><div xmlns="http://www.w3.org/1999/xhtml" class="labelBkg" style="display: table-cell; white-space: nowrap; line-height: 1.5; max-width: 200px; text-align: center;"><span class="edgeLabel"></span></div></foreignObject></g></g></g><g class="nodes"><g class="node mindmap-node section-root section--1" id="node_0" transform="translate(369.8616799570693, 217.31993693207028)"><circle class="basic label-container" style="" r="49.140625" cx="0" cy="0"/><g class="label" style="" transform="translate(-39.140625, -12)"><rect/><foreignObject width="78.28125" height="24"><div xmlns="http://www.w3.org/1999/xhtml" style="display: table-cell; white-space: nowrap; line-height: 1.5; max-width: 200px; text-align: center;"><span class="nodeLabel"><p>Philosophy</p></span></div></foreignObject></g></g><g class="node mindmap-node section-0" id="node_1" transform="translate(508.9597046749989, 280.0544785345169)"><path id="node-1" class="node-bkg node-0" style="" d="M-60.4609375 12&#10;    v-24&#10;    q0,-5 5,-5&#10;    h110.921875&#10;    q5,0 5,5&#10;    v24&#10;    q0,5 -5,5&#10;    h-110.921875&#10;    q-5,0 -5,-5&#10;    Z"/><line class="node-line-" x1="-60.4609375" y1="17" x2="60.4609375" y2="17"/><g class="label" style="" transform="translate(-40.4609375, -12)"><rect/><foreignObject width="80.921875" height="24"><div xmlns="http://www.w3.org/1999/xhtml" style="display: table-cell; white-space: nowrap; line-height: 1.5; max-width: 200px; text-align: center;"><span class="nodeLabel"><p>Experiment</p></span></div></foreignObject></g></g><g class="node mindmap-node section-0" id="node_2" transform="translate(669.4599037265812, 277.8690421559962)"><path id="node-2" class="node-bkg node-0" style="" d="M-45.3515625 12&#10;    v-24&#10;    q0,-5 5,-5&#10;    h80.703125&#10;    q5,0 5,5&#10;    v24&#10;    q0,5 -5,5&#10;    h-80.703125&#10;    q-5,0 -5,-5&#10;    Z"/><line class="node-line-" x1="-45.3515625" y1="17" x2="45.3515625" y2="17"/><g class="label" style="" transform="translate(-25.3515625, -12)"><rect/><foreignObject width="50.703125" height="24"><div xmlns="http://www.w3.org/1999/xhtml" style="display: table-cell; white-space: nowrap; line-height: 1.5; max-width: 200px; text-align: center;"><span class="nodeLabel"><p>Branch</p></span></div></foreignObject></g></g><g class="node mindmap-node section-0" id="node_3" transform="translate(566.3283856868134, 357.6048797056736)"><path id="node-3" class="node-bkg node-0" style="" d="M-53.796875 12&#10;    v-24&#10;    q0,-5 5,-5&#10;    h97.59375&#10;    q5,0 5,5&#10;    v24&#10;    q0,5 -5,5&#10;    h-97.59375&#10;    q-5,0 -5,-5&#10;    Z"/><line class="node-line-" x1="-53.796875" y1="17" x2="53.796875" y2="17"/><g class="label" style="" transform="translate(-33.796875, -12)"><rect/><foreignObject width="67.59375" height="24"><div xmlns="http://www.w3.org/1999/xhtml" style="display: table-cell; white-space: nowrap; line-height: 1.5; max-width: 200px; text-align: center;"><span class="nodeLabel"><p>Checkout</p></span></div></foreignObject></g></g><g class="node mindmap-node section-1" id="node_4" transform="translate(302.9024745902136, 332.88592763478357)"><path id="node-4" class="node-bkg node-0" style="" d="M-42.6796875 12&#10;    v-24&#10;    q0,-5 5,-5&#10;    h75.359375&#10;    q5,0 5,5&#10;    v24&#10;    q0,5 -5,5&#10;    h-75.359375&#10;    q-5,0 -5,-5&#10;    Z"/><line class="node-line-" x1="-42.6796875" y1="17" x2="42.6796875" y2="17"/><g class="label" style="" transform="translate(-22.6796875, -12)"><rect/><foreignObject width="45.359375" height="24"><div xmlns="http://www.w3.org/1999/xhtml" style="display: table-cell; white-space: nowrap; line-height: 1.5; max-width: 200px; text-align: center;"><span class="nodeLabel"><p>Safety</p></span></div></foreignObject></g></g><g class="node mindmap-node section-1" id="node_5" transform="translate(176.40551353669537, 389.769641733174)"><path id="node-5" class="node-bkg node-0" style="" d="M-84.4609375 12&#10;    v-24&#10;    q0,-5 5,-5&#10;    h158.921875&#10;    q5,0 5,5&#10;    v24&#10;    q0,5 -5,5&#10;    h-158.921875&#10;    q-5,0 -5,-5&#10;    Z"/><line class="node-line-" x1="-84.4609375" y1="17" x2="84.4609375" y2="17"/><g class="label" style="" transform="translate(-64.4609375, -12)"><rect/><foreignObject width="128.921875" height="24"><div xmlns="http://www.w3.org/1999/xhtml" style="display: table-cell; white-space: nowrap; line-height: 1.5; max-width: 200px; text-align: center;"><span class="nodeLabel"><p>Immutable History</p></span></div></foreignObject></g></g><g class="node mindmap-node section-1" id="node_6" transform="translate(377.7153223172097, 404.965713386267)"><path id="node-6" class="node-bkg node-0" style="" d="M-61.7890625 12&#10;    v-24&#10;    q0,-5 5,-5&#10;    h113.578125&#10;    q5,0 5,5&#10;    v24&#10;    q0,5 -5,5&#10;    h-113.578125&#10;    q-5,0 -5,-5&#10;    Z"/><line class="node-line-" x1="-61.7890625" y1="17" x2="61.7890625" y2="17"/><g class="label" style="" transform="translate(-41.7890625, -12)"><rect/><foreignObject width="83.578125" height="24"><div xmlns="http://www.w3.org/1999/xhtml" style="display: table-cell; white-space: nowrap; line-height: 1.5; max-width: 200px; text-align: center;"><span class="nodeLabel"><p>Checksums</p></span></div></foreignObject></g></g><g class="node mindmap-node section-1" id="node_7" transform="translate(168.61850141913294, 278.6761650423532)"><path id="node-7" class="node-bkg node-0" style="" d="M-53.7890625 12&#10;    v-24&#10;    q0,-5 5,-5&#10;    h97.578125&#10;    q5,0 5,5&#10;    v24&#10;    q0,5 -5,5&#10;    h-97.578125&#10;    q-5,0 -5,-5&#10;    Z"/><line class="node-line-" x1="-53.7890625" y1="17" x2="53.7890625" y2="17"/><g class="label" style="" transform="translate(-33.7890625, -12)"><rect/><foreignObject width="67.578125" height="24"><div xmlns="http://www.w3.org/1999/xhtml" style="display: table-cell; white-space: nowrap; line-height: 1.5; max-width: 200px; text-align: center;"><span class="nodeLabel"><p>Recovery</p></span></div></foreignObject></g></g><g class="node mindmap-node section-2" id="node_8" transform="translate(238.01282098099205, 147.79769891532385)"><path id="node-8" class="node-bkg node-0" style="" d="M-45.7890625 12&#10;    v-24&#10;    q0,-5 5,-5&#10;    h81.578125&#10;    q5,0 5,5&#10;    v24&#10;    q0,5 -5,5&#10;    h-81.578125&#10;    q-5,0 -5,-5&#10;    Z"/><line class="node-line-" x1="-45.7890625" y1="17" x2="45.7890625" y2="17"/><g class="label" style="" transform="translate(-25.7890625, -12)"><rect/><foreignObject width="51.578125" height="24"><div xmlns="http://www.w3.org/1999/xhtml" style="display: table-cell; white-space: nowrap; line-height: 1.5; max-width: 200px; text-align: center;"><span class="nodeLabel"><p>Control</p></span></div></foreignObject></g></g><g class="node mindmap-node section-2" id="node_9" transform="translate(85.2578125, 195.24023242999124)"><path id="node-9" class="node-bkg node-0" style="" d="M-70.2578125 12&#10;    v-24&#10;    q0,-5 5,-5&#10;    h130.515625&#10;    q5,0 5,5&#10;    v24&#10;    q0,5 -5,5&#10;    h-130.515625&#10;    q-5,0 -5,-5&#10;    Z"/><line class="node-line-" x1="-70.2578125" y1="17" x2="70.2578125" y2="17"/><g class="label" style="" transform="translate(-50.2578125, -12)"><rect/><foreignObject width="100.515625" height="24"><div xmlns="http://www.w3.org/1999/xhtml" style="display: table-cell; white-space: nowrap; line-height: 1.5; max-width: 200px; text-align: center;"><span class="nodeLabel"><p>Plugin Quotas</p></span></div></foreignObject></g></g><g class="node mindmap-node section-2" id="node_10" transform="translate(105.71822657809571, 91.29366503647839)"><path id="node-10" class="node-bkg node-0" style="" d="M-49.796875 12&#10;    v-24&#10;    q0,-5 5,-5&#10;    h89.59375&#10;    q5,0 5,5&#10;    v24&#10;    q0,5 -5,5&#10;    h-89.59375&#10;    q-5,0 -5,-5&#10;    Z"/><line class="node-line-" x1="-49.796875" y1="17" x2="49.796875" y2="17"/><g class="label" style="" transform="translate(-29.796875, -12)"><rect/><foreignObject width="59.59375" height="24"><div xmlns="http://www.w3.org/1999/xhtml" style="display: table-cell; white-space: nowrap; line-height: 1.5; max-width: 200px; text-align: center;"><span class="nodeLabel"><p>Isolation</p></span></div></foreignObject></g></g><g class="node mindmap-node section-2" id="node_11" transform="translate(265.91777001641935, 61.689138304656126)"><path id="node-11" class="node-bkg node-0" style="" d="M-58.234375 12&#10;    v-24&#10;    q0,-5 5,-5&#10;    h106.46875&#10;    q5,0 5,5&#10;    v24&#10;    q0,5 -5,5&#10;    h-106.46875&#10;    q-5,0 -5,-5&#10;    Z"/><line class="node-line-" x1="-58.234375" y1="17" x2="58.234375" y2="17"/><g class="label" style="" transform="translate(-38.234375, -12)"><rect/><foreignObject width="76.46875" height="24"><div xmlns="http://www.w3.org/1999/xhtml" style="display: table-cell; white-space: nowrap; line-height: 1.5; max-width: 200px; text-align: center;"><span class="nodeLabel"><p>Full Export</p></span></div></foreignObject></g></g><g class="node mindmap-node section-3" id="node_12" transform="translate(481.6041689418762, 119.84324492947474)"><path id="node-12" class="node-bkg node-0" style="" d="M-55.578125 12&#10;    v-24&#10;    q0,-5 5,-5&#10;    h101.15625&#10;    q5,0 5,5&#10;    v24&#10;    q0,5 -5,5&#10;    h-101.15625&#10;    q-5,0 -5,-5&#10;    Z"/><line class="node-line-" x1="-55.578125" y1="17" x2="55.578125" y2="17"/><g class="label" style="" transform="translate(-35.578125, -12)"><rect/><foreignObject width="71.15625" height="24"><div xmlns="http://www.w3.org/1999/xhtml" style="display: table-cell; white-space: nowrap; line-height: 1.5; max-width: 200px; text-align: center;"><span class="nodeLabel"><p>Continuity</p></span></div></foreignObject></g></g><g class="node mindmap-node section-3" id="node_13" transform="translate(468.55759217518425, 32)"><path id="node-13" class="node-bkg node-0" style="" d="M-84.484375 12&#10;    v-24&#10;    q0,-5 5,-5&#10;    h158.96875&#10;    q5,0 5,5&#10;    v24&#10;    q0,5 -5,5&#10;    h-158.96875&#10;    q-5,0 -5,-5&#10;    Z"/><line class="node-line-" x1="-84.484375" y1="17" x2="84.484375" y2="17"/><g class="label" style="" transform="translate(-64.484375, -12)"><rect/><foreignObject width="128.96875" height="24"><div xmlns="http://www.w3.org/1999/xhtml" style="display: table-cell; white-space: nowrap; line-height: 1.5; max-width: 200px; text-align: center;"><span class="nodeLabel"><p>Schema Evolution</p></span></div></foreignObject></g></g><g class="node mindmap-node section-3" id="node_14" transform="translate(671.3091631094396, 78.66613892846146)"><path id="node-14" class="node-bkg node-0" style="" d="M-80.46875 12&#10;    v-24&#10;    q0,-5 5,-5&#10;    h150.9375&#10;    q5,0 5,5&#10;    v24&#10;    q0,5 -5,5&#10;    h-150.9375&#10;    q-5,0 -5,-5&#10;    Z"/><line class="node-line-" x1="-80.46875" y1="17" x2="80.46875" y2="17"/><g class="label" style="" transform="translate(-60.46875, -12)"><rect/><foreignObject width="120.9375" height="24"><div xmlns="http://www.w3.org/1999/xhtml" style="display: table-cell; white-space: nowrap; line-height: 1.5; max-width: 200px; text-align: center;"><span class="nodeLabel"><p>Automatic Merge</p></span></div></foreignObject></g></g><g class="node mindmap-node section-3" id="node_15" transform="translate(611.5252101635117, 174.07713672740908)"><path id="node-15" class="node-bkg node-0" style="" d="M-62.6796875 12&#10;    v-24&#10;    q0,-5 5,-5&#10;    h115.359375&#10;    q5,0 5,5&#10;    v24&#10;    q0,5 -5,5&#10;    h-115.359375&#10;    q-5,0 -5,-5&#10;    Z"/><line class="node-line-" x1="-62.6796875" y1="17" x2="62.6796875" y2="17"/><g class="label" style="" transform="translate(-42.6796875, -12)"><rect/><foreignObject width="85.359375" height="24"><div xmlns="http://www.w3.org/1999/xhtml" style="display: table-cell; white-space: nowrap; line-height: 1.5; max-width: 200px; text-align: center;"><span class="nodeLabel"><p>Multi-device</p></span></div></foreignObject></g></g></g></g></svg>